<svg width="16" height="16" viewBox="0 0 16 16" fill="none" xmlns="http://www.w3.org/2000/svg">
<path fill-rule="evenodd" clip-rule="evenodd" d="M16 8C16 12.4183 12.4183 16 8 16C3.58172 16 0 12.4183 0 8C0 3.58172 3.58172 0 8 0C12.4183 0 16 3.58172 16 8ZM8.72714 9.99999H7.27259C7.17408 9.99999 7.08885 10.036 7.01685 10.1079C6.94491 10.1799 6.90891 10.2651 6.90891 10.3636V11.6363C6.90891 11.7348 6.94491 11.82 7.01685 11.8921C7.08891 11.9639 7.17406 12 7.27259 12H8.72726C8.82561 12 8.91088 11.9639 8.98294 11.8921C9.05479 11.82 9.09081 11.7348 9.09081 11.6363V10.3636C9.09081 10.2651 9.05473 10.1799 8.98281 10.1079C8.91082 10.036 8.82555 9.99999 8.72714 9.99999ZM8.90894 4C9.00749 4 9.09175 4.03606 9.16182 4.10794C9.23191 4.18 9.2652 4.2652 9.26126 4.36366L9.10231 8.72718C9.09836 8.82566 9.05969 8.911 8.98586 8.98284C8.91183 9.0549 8.82568 9.09092 8.72733 9.09092H7.27266C7.17415 9.09092 7.08799 9.0549 7.01413 8.98284C6.94024 8.91098 6.90146 8.82564 6.89768 8.72718L6.73863 4.36366C6.73485 4.2652 6.76798 4.17992 6.83805 4.10794C6.90816 4.03606 6.99238 4 7.09085 4H8.90894Z" fill="#666666"/>
</svg>
